<?xml version="1.0" standalone="no"?>
<!DOCTYPE svg PUBLIC "-//W3C//DTD SVG 20010904//EN"
 "http://www.w3.org/TR/2001/REC-SVG-20010904/DTD/svg10.dtd">
<svg version="1.0" xmlns="http://www.w3.org/2000/svg"
 width="209.000000pt" height="90.000000pt" viewBox="0 0 209.000000 90.000000"
 preserveAspectRatio="xMidYMid meet">

<g transform="translate(0.000000,90.000000) scale(0.100000,-0.100000)"
fill="#000000" stroke="none">
<path d="M628 840 c-36 -65 -54 -77 -44 -30 6 34 1 39 -14 11 -14 -27 6 -70
36 -77 35 -9 55 -1 77 27 15 21 17 31 9 45 -8 14 -7 23 5 36 19 21 10 48 -16
48 -14 0 -30 -18 -53 -60z m53 17 c-16 -16 -26 0 -10 19 9 11 15 12 17 4 2 -6
-1 -17 -7 -23z m-5 -49 c5 -16 1 -27 -16 -40 -45 -36 -69 -18 -38 30 23 37 44
41 54 10z"/>
<path d="M911 836 c-32 -55 -57 -83 -67 -73 -3 3 2 16 11 30 13 20 14 29 4 50
-12 26 -33 29 -23 4 5 -14 -63 -93 -72 -84 -3 3 1 18 10 34 30 59 -23 71 -56
12 -28 -49 -24 -59 24 -55 35 3 49 11 77 42 19 22 31 30 26 19 -22 -56 -19
-63 22 -63 21 0 48 5 61 11 16 8 28 7 47 -3 14 -7 28 -10 32 -7 3 4 1 7 -5 7
-7 0 -12 7 -12 15 0 8 8 15 18 15 10 0 23 5 30 12 14 14 16 48 3 48 -23 0 -43
-15 -57 -41 -8 -16 -21 -29 -29 -29 -13 0 -13 4 2 26 15 24 16 27 1 38 -12 9
-13 17 -7 29 7 11 7 17 0 17 -5 0 -23 -24 -40 -54z m39 -1 c0 -15 -24 -53 -31
-49 -5 3 -9 -2 -9 -10 0 -9 -4 -16 -10 -16 -14 0 -13 4 11 44 18 31 39 47 39
31z m-180 -12 c0 -13 -48 -68 -54 -63 -7 8 31 70 44 70 5 0 10 -3 10 -7z m260
-8 c-7 -8 -16 -15 -21 -15 -5 0 -6 7 -3 15 4 8 13 15 21 15 13 0 13 -3 3 -15z"/>
<path d="M1253 878 c-6 -7 -20 -32 -33 -55 -29 -52 -45 -56 -36 -8 4 19 5 35
2 35 -3 0 -24 -20 -47 -45 -43 -47 -59 -53 -39 -15 12 23 5 80 -11 80 -5 0 -9
-9 -9 -20 0 -10 -14 -35 -31 -55 -17 -19 -25 -33 -17 -30 8 3 25 20 37 36 27
37 40 32 15 -6 -21 -32 -7 -53 24 -36 12 6 23 7 26 2 3 -5 19 -8 35 -7 22 1
36 11 53 35 13 19 30 37 38 39 11 4 11 0 -3 -21 -9 -15 -17 -33 -17 -42 0 -17
25 -21 35 -5 5 8 11 7 21 -1 11 -9 21 -9 41 0 33 15 39 9 18 -23 -11 -16 -13
-26 -6 -26 6 0 16 11 23 24 8 20 16 24 37 20 18 -4 33 1 47 13 10 10 15 15 10
11 -21 -16 -26 -7 -11 22 21 40 19 50 -9 50 -17 0 -31 -11 -46 -35 -23 -37
-49 -50 -30 -14 7 11 9 27 6 35 -8 22 -44 17 -57 -8 -15 -30 -50 -68 -62 -68
-5 0 0 16 12 36 25 42 26 54 6 54 -18 0 -19 12 -3 28 8 8 8 12 1 12 -6 0 -15
-6 -20 -12z m92 -83 c-18 -34 -35 -46 -35 -24 0 16 41 71 48 64 3 -3 -2 -21
-13 -40z m105 28 c-1 -15 -39 -58 -46 -51 -8 9 22 58 36 58 6 0 10 -3 10 -7z
m-290 -42 c-6 -12 -16 -19 -21 -15 -6 4 -4 13 7 25 21 24 29 18 14 -10z"/>
<path d="M200 490 l0 -120 55 0 55 0 0 114 c0 127 0 126 -71 126 l-39 0 0
-120z m68 48 c-3 -34 -20 -42 -26 -13 -5 22 5 45 18 45 7 0 10 -14 8 -32z m0
-100 c-3 -34 -20 -42 -26 -13 -5 22 5 45 18 45 7 0 10 -14 8 -32z"/>
<path d="M403 603 c-9 -3 -13 -37 -13 -119 l0 -114 55 0 55 0 0 114 c0 95 -3
115 -16 120 -18 7 -63 7 -81 -1z m55 -115 c-2 -54 -7 -83 -15 -86 -10 -3 -13
18 -13 82 0 71 3 86 15 86 13 0 15 -14 13 -82z"/>
<path d="M580 490 c0 -113 1 -120 20 -120 17 0 20 7 20 51 0 31 4 48 10 44 6
-3 10 -18 10 -33 0 -44 11 -72 29 -72 14 0 16 16 18 112 1 69 -2 117 -9 125
-6 7 -30 13 -54 13 l-44 0 0 -120z m65 45 c0 -16 -6 -30 -12 -32 -9 -3 -13 7
-13 32 0 25 4 35 13 33 6 -3 12 -17 12 -33z"/>
<path d="M772 598 c-16 -16 -16 -210 0 -226 16 -16 80 -16 96 0 16 16 16 210
0 226 -7 7 -28 12 -48 12 -20 0 -41 -5 -48 -12z m64 -54 c-3 -9 -6 -45 -6 -80
0 -36 -4 -64 -10 -64 -6 0 -10 33 -10 80 0 67 3 80 16 80 11 0 14 -5 10 -16z"/>
<path d="M950 485 l0 -125 50 0 c63 0 70 12 70 125 0 113 -7 125 -70 125 l-50
0 0 -125z m68 -2 c-2 -44 -7 -78 -13 -78 -6 0 -11 34 -13 78 -2 65 0 77 13 77
13 0 15 -12 13 -77z"/>
<path d="M1140 485 c0 -118 1 -125 20 -125 19 0 20 7 20 125 0 118 -1 125 -20
125 -19 0 -20 -7 -20 -125z"/>
<path d="M1255 598 c-3 -8 -4 -63 -3 -124 3 -101 4 -109 23 -109 17 0 20 6 19
38 -1 20 2 37 6 37 3 0 11 -17 16 -37 7 -28 14 -38 29 -38 19 0 20 7 20 120 0
105 -2 120 -17 123 -14 3 -17 -6 -20 -45 l-3 -48 -16 45 c-16 45 -44 64 -54
38z"/>
<path d="M1451 596 c-7 -8 -11 -37 -9 -68 3 -52 3 -53 38 -58 32 -5 35 -7 32
-35 -2 -16 -5 -32 -7 -34 -8 -8 -25 12 -25 29 0 13 -5 17 -21 13 -16 -4 -19
-12 -17 -37 3 -30 5 -31 56 -34 l52 -3 0 65 c0 69 2 67 -50 70 -10 1 -15 11
-15 31 0 20 5 30 15 30 10 0 14 -8 12 -22 -2 -17 1 -20 18 -16 25 7 29 67 4
77 -28 11 -71 6 -83 -8z"/>
<path d="M1630 490 c0 -112 1 -120 19 -120 17 0 20 8 23 48 l4 47 14 -47 c10
-34 19 -48 32 -48 22 0 22 2 2 65 -14 46 -14 55 2 108 9 31 14 60 11 63 -14
14 -36 -7 -43 -41 -9 -52 -24 -53 -24 -1 0 39 -3 46 -20 46 -19 0 -20 -7 -20
-120z"/>
<path d="M1820 490 c0 -113 1 -120 20 -120 19 0 20 7 20 120 0 113 -1 120 -20
120 -19 0 -20 -7 -20 -120z"/>
<path d="M11 496 c-9 -10 -8 -16 4 -26 21 -17 51 6 34 26 -6 8 -15 14 -19 14
-4 0 -13 -6 -19 -14z"/>
<path d="M2017 503 c-24 -23 12 -55 38 -33 12 10 13 16 4 26 -12 15 -31 18
-42 7z"/>
<path d="M720 170 c-40 -40 -17 -100 46 -120 49 -17 137 -6 199 25 l51 24 47
-24 c121 -61 267 -30 267 55 0 31 -28 60 -56 59 -16 0 -16 -2 4 -10 17 -6 22
-15 20 -31 -5 -36 -43 -34 -108 6 -61 38 -121 47 -162 25 -14 -8 -23 -8 -31 0
-23 23 -88 12 -154 -25 -35 -19 -74 -34 -86 -32 -28 4 -35 38 -11 55 10 7 12
13 6 13 -7 0 -21 -9 -32 -20z"/>
</g>
</svg>
