<?xml version="1.0" standalone="no"?>
<!DOCTYPE svg PUBLIC "-//W3C//DTD SVG 20010904//EN"
 "http://www.w3.org/TR/2001/REC-SVG-20010904/DTD/svg10.dtd">
<svg version="1.0" xmlns="http://www.w3.org/2000/svg"
 width="173.000000pt" height="84.000000pt" viewBox="0 0 173.000000 84.000000"
 preserveAspectRatio="xMidYMid meet">

<g transform="translate(0.000000,84.000000) scale(0.100000,-0.100000)"
fill="#000000" stroke="none">
<path d="M1215 828 c-44 -16 -93 -66 -108 -112 -8 -23 -21 -42 -30 -44 -15 -3
-16 1 -7 23 13 34 13 35 -5 35 -9 0 -20 -11 -25 -24 -6 -17 -14 -23 -28 -19
-14 3 -21 -2 -25 -16 -8 -34 -24 -24 -25 15 -1 20 -4 39 -6 42 -11 11 -36 -9
-36 -28 0 -30 -16 -16 -23 20 -9 40 -41 43 -35 3 3 -16 9 -36 13 -45 4 -11 3
-18 -4 -18 -7 0 -15 8 -18 18 -4 9 -12 21 -20 25 -7 4 -13 15 -13 23 0 9 -7
14 -17 12 -10 -2 -17 -11 -17 -21 2 -22 -5 -22 -22 1 -13 16 -15 16 -29 -2
-16 -21 -16 -21 -58 36 -34 46 -90 65 -141 48 -54 -17 -68 -41 -64 -102 l3
-53 -113 4 c-95 3 -116 1 -131 -13 -17 -16 -21 -16 -55 0 -57 28 -66 4 -10
-26 l46 -25 -8 -60 c-9 -68 -7 -167 6 -233 4 -25 4 -58 -1 -75 -5 -19 -5 -35
1 -42 7 -8 4 -18 -10 -30 -11 -10 -20 -22 -20 -27 0 -14 23 -9 44 10 27 23
141 20 132 -4 -3 -8 -9 -21 -12 -29 -11 -28 25 -16 40 13 l15 29 188 9 c268
13 487 11 648 -5 77 -8 167 -15 200 -15 64 -1 128 19 122 38 -2 6 4 34 14 61
9 28 23 83 30 123 12 70 14 74 51 93 38 19 50 39 25 39 -7 0 -22 -7 -33 -15
-10 -8 -22 -15 -26 -15 -5 0 -8 30 -8 66 0 70 -12 104 -36 104 -8 0 -17 6 -20
14 -3 8 -17 17 -31 21 -20 5 -22 9 -13 20 17 21 -5 27 -29 7 -17 -13 -36 -16
-86 -14 -63 4 -64 4 -54 28 15 41 11 99 -8 117 -24 21 -81 28 -118 15z m-455
-148 c0 -5 -4 -10 -10 -10 -5 0 -10 5 -10 10 0 6 5 10 10 10 6 0 10 -4 10 -10z
m-162 -93 c3 -34 1 -37 -22 -37 -23 0 -26 4 -26 34 0 32 13 47 35 42 6 -1 11
-19 13 -39z m482 -98 c0 -37 4 -70 9 -74 6 -3 27 29 47 71 34 69 76 116 90
101 3 -3 -10 -36 -30 -75 -19 -38 -31 -73 -26 -78 18 -19 72 -165 66 -180 -13
-33 -40 -8 -70 65 l-30 74 -23 -29 c-15 -19 -23 -42 -23 -66 0 -27 -6 -40 -20
-48 -26 -14 -26 -16 -38 165 -8 132 -7 152 7 163 26 21 41 -12 41 -89z m-282
69 c18 -18 15 -35 -7 -41 -11 -2 -26 3 -35 15 -10 11 -26 18 -39 16 -19 -3
-22 -10 -25 -60 l-3 -58 46 0 c65 0 85 -23 85 -100 0 -51 -3 -62 -23 -75 -36
-23 -110 -30 -129 -12 -16 16 -13 76 3 78 29 5 34 2 34 -26 0 -27 4 -30 33
-33 l32 -3 0 55 c0 80 -4 86 -60 86 -61 0 -72 13 -68 86 3 51 6 60 28 71 32
16 112 17 128 1z m92 -68 l0 -80 34 0 33 0 -5 68 c-3 55 -1 70 10 75 29 11 36
-10 46 -138 10 -140 4 -175 -28 -175 -18 0 -20 6 -20 69 0 75 -7 86 -47 76
-25 -6 -26 -8 -20 -65 6 -53 4 -61 -14 -71 -11 -6 -24 -8 -27 -4 -9 8 -16 290
-8 310 3 8 15 15 26 15 18 0 20 -6 20 -80z m-508 -30 c12 -33 26 -60 30 -60 4
0 18 35 31 78 19 62 28 78 45 80 20 3 22 -1 23 -55 0 -32 3 -101 5 -154 3 -78
1 -99 -11 -109 -25 -21 -34 -1 -37 80 l-3 75 -14 -45 c-7 -25 -18 -48 -25 -52
-19 -13 -36 -9 -36 10 -1 9 -9 33 -20 52 l-19 35 -1 -72 c0 -70 -1 -73 -23
-73 -24 0 -24 2 -30 143 -6 128 -5 143 11 155 14 11 20 10 34 -8 9 -11 27 -47
40 -80z m1056 88 c7 -7 12 -38 12 -70 0 -45 3 -58 15 -58 19 0 20 -19 1 -26
-11 -4 -13 -18 -9 -58 4 -41 2 -56 -12 -70 -23 -23 -39 -16 -40 20 -4 108 -1
101 -50 102 l-44 2 -3 -67 c-3 -62 -5 -68 -25 -71 -22 -3 -23 -1 -25 95 -3
165 0 174 57 199 38 17 107 18 123 2z m-835 -35 c3 -5 8 -63 11 -130 6 -117 6
-122 -15 -133 -11 -7 -23 -9 -26 -6 -6 6 -21 258 -16 269 2 4 13 7 23 7 10 0
21 -3 23 -7z"/>
<path d="M1322 528 c-6 -6 -12 -34 -12 -60 l0 -48 45 0 46 0 -3 58 c-3 55 -4
57 -33 60 -17 2 -36 -3 -43 -10z"/>
<path d="M242 723 c2 -10 10 -18 18 -18 8 0 16 8 18 18 2 12 -3 17 -18 17 -15
0 -20 -5 -18 -17z"/>
<path d="M1425 709 c-4 -6 -5 -12 -2 -15 7 -7 37 7 37 17 0 13 -27 11 -35 -2z"/>
<path d="M360 680 c0 -5 7 -7 15 -4 8 4 15 8 15 10 0 2 -7 4 -15 4 -8 0 -15
-4 -15 -10z"/>
<path d="M1598 661 c-22 -20 -28 -31 -17 -31 17 0 66 47 57 56 -4 3 -21 -8
-40 -25z"/>
<path d="M43 339 c-36 -10 -45 -29 -14 -29 31 0 73 19 66 30 -7 11 -9 11 -52
-1z"/>
<path d="M1643 324 c-28 -12 -11 -24 33 -24 32 0 44 4 42 13 -5 13 -54 20 -75
11z"/>
<path d="M640 114 c-13 -33 -13 -34 5 -34 9 0 20 12 25 26 13 33 13 34 -5 34
-9 0 -20 -12 -25 -26z"/>
<path d="M690 100 c0 -5 6 -10 14 -10 8 0 18 5 21 10 3 6 -3 10 -14 10 -12 0
-21 -4 -21 -10z"/>
<path d="M1382 102 c-18 -12 -4 -42 19 -42 22 0 24 10 7 33 -8 10 -18 14 -26
9z"/>
<path d="M1330 58 c1 -21 26 -48 44 -48 20 0 20 9 0 38 -16 24 -44 30 -44 10z"/>
</g>
</svg>
