<?xml version="1.0" standalone="no"?>
<!DOCTYPE svg PUBLIC "-//W3C//DTD SVG 20010904//EN"
 "http://www.w3.org/TR/2001/REC-SVG-20010904/DTD/svg10.dtd">
<svg version="1.0" xmlns="http://www.w3.org/2000/svg"
 width="185.000000pt" height="52.000000pt" viewBox="0 0 185.000000 52.000000"
 preserveAspectRatio="xMidYMid meet">

<g transform="translate(0.000000,52.000000) scale(0.100000,-0.100000)"
fill="#000000" stroke="none">
<path d="M119 495 c-32 -17 -40 -37 -79 -192 -40 -160 -40 -160 11 -165 45 -4
51 1 69 55 33 102 180 100 211 -2 22 -74 -27 -141 -105 -141 -22 0 -47 4 -55
9 -16 10 -41 4 -41 -10 0 -15 58 -39 96 -39 65 0 144 62 144 114 0 30 25 15
45 -27 29 -61 77 -90 141 -85 63 5 107 35 130 88 15 33 23 40 45 40 15 0 30 4
33 8 2 4 -12 77 -33 161 -32 131 -42 157 -65 177 -25 22 -75 32 -89 18 -12
-12 6 -34 28 -34 37 0 56 -35 86 -157 32 -134 32 -133 21 -133 -5 0 -17 18
-27 41 -21 45 -51 67 -68 50 -8 -8 -4 -18 12 -35 15 -15 25 -42 28 -70 5 -42
3 -48 -30 -81 -39 -39 -86 -46 -135 -21 -41 21 -67 81 -53 119 11 28 -15 59
-30 36 -5 -8 -9 -20 -9 -26 0 -7 -7 -13 -15 -13 -8 0 -15 9 -15 20 0 30 -58
88 -100 101 -57 17 -108 4 -152 -41 -21 -21 -38 -47 -38 -59 0 -12 -6 -21 -16
-21 -10 0 -14 6 -10 18 3 9 17 67 32 127 29 119 42 142 83 147 34 4 35 32 1
35 -14 2 -37 -4 -51 -12z"/>
<path d="M1186 401 c-15 -16 -15 -19 -1 -31 13 -11 18 -11 30 1 11 11 11 17 1
31 -12 17 -14 17 -30 -1z"/>
<path d="M568 329 c-17 -18 -17 -20 1 -38 19 -19 20 -19 37 0 17 19 17 20 -2
38 -18 18 -20 18 -36 0z"/>
<path d="M495 287 c11 -9 29 -17 40 -17 27 0 7 17 -30 25 -29 7 -29 7 -10 -8z"/>
<path d="M1185 288 c-3 -8 -4 -72 -3 -144 3 -107 6 -129 18 -129 13 0 15 22
15 139 0 103 -3 140 -12 143 -7 3 -15 -2 -18 -9z"/>
<path d="M1304 287 c-2 -7 -3 -70 -2 -140 4 -159 22 -176 26 -24 1 59 6 107
10 106 4 0 36 -38 72 -85 87 -113 110 -138 121 -127 13 13 7 278 -6 278 -6 0
-12 -47 -15 -110 l-5 -109 -89 112 c-49 62 -93 112 -98 112 -5 0 -11 -6 -14
-13z"/>
<path d="M1625 288 c-10 -25 0 -268 10 -271 6 -1 11 14 13 34 2 25 13 45 33
65 l30 29 27 -30 c15 -17 41 -48 59 -70 25 -31 34 -37 44 -28 9 9 0 27 -46 83
l-57 72 53 54 c42 43 51 56 41 66 -10 10 -29 -5 -90 -70 -42 -45 -80 -82 -84
-82 -5 0 -8 33 -8 74 0 69 -13 106 -25 74z"/>
<path d="M432 278 c-7 -9 -6 -17 3 -25 10 -10 16 -9 24 1 8 10 8 16 -3 25 -10
8 -16 8 -24 -1z"/>
<path d="M912 155 c2 -79 7 -136 13 -138 6 -1 11 19 13 46 l3 47 37 0 c94 0
142 34 142 101 0 59 -33 79 -132 79 l-79 0 3 -135z m158 90 c49 -44 9 -99 -73
-100 l-52 0 -3 49 c-5 73 0 79 58 74 28 -3 59 -13 70 -23z"/>
<path d="M92 98 c-7 -9 -6 -17 3 -25 10 -10 16 -9 24 1 8 10 8 16 -3 25 -10 8
-16 8 -24 -1z"/>
</g>
</svg>
